<svg xmlns="http://www.w3.org/2000/svg" xmlns:xlink="http://www.w3.org/1999/xlink" width="300"
    height="300" viewBox="0 0 300 300">
    <defs>
        <style>
            .cls-1 {
            clip-path: url(#clip-açıklanabilir_yapay_zeka);
            }

            .cls-2 {
            fill: #fff;
            }
        </style>
        <clipPath id="clip-açıklanabilir_yapay_zeka">
            <rect width="300" height="300" />
        </clipPath>
    </defs>
    <g id="açıklanabilir_yapay_zeka" data-name="açıklanabilir yapay zeka" class="cls-1">
        <g id="Group_7" data-name="Group 7" transform="translate(-0.475 7.002)">
            <g id="Group_6" data-name="Group 6" transform="translate(147.843 60.084)">
                <path id="Path_1" data-name="Path 1" class="cls-2"
                    d="M411.25,184.374a66.622,66.622,0,0,0-1.612-64.552,65.391,65.391,0,0,0-54.427-32.76c-.58,0-1.225-.064-1.87-.064h-.065a71.6,71.6,0,0,0-72.226,67.647c-.065,1.161-.129,10.382-.129,13.607l-12.768,33.4a6.916,6.916,0,0,0,4,8.9,6.356,6.356,0,0,0,2.451.451h16.122v18.379a18.88,18.88,0,0,0,18.895,18.895h.58c.451,0,3.611-.065,19.669-.129a5.972,5.972,0,0,1,5.61,4V301.1a3.881,3.881,0,0,0,3.869,3.869h60.425a3.881,3.881,0,0,0,3.869-3.869v-.129c0-.645-2.322-67.325,0-92.41C404.156,202.882,409.251,189.34,411.25,184.374Zm-54.1-81.512v-8a57.668,57.668,0,0,1,44.819,27.214h-25.6a19.183,19.183,0,0,1-19.217-19.217Zm-37.274.774v8.319a15.481,15.481,0,0,1-15.477,15.477H296.72A64.034,64.034,0,0,1,319.871,103.636Zm-31.083,51.4c.064-1.161.129-2.257.258-3.353h10.189a8.19,8.19,0,1,1,.129,16.38h-10.7C288.723,162.126,288.723,155.806,288.788,155.032ZM330,240.285h-.129c-12.317.064-19.024.064-19.927.129a11.125,11.125,0,0,1-11.479-10.834V207.009a3.881,3.881,0,0,0-3.869-3.869h-18.7L286.337,175.8h12.9A15.9,15.9,0,0,0,299.428,144h-9.093a68.951,68.951,0,0,1,2.709-8.77h11.285a23.2,23.2,0,0,0,23.215-23.215V99.831a65.024,65.024,0,0,1,21.8-4.966v8.125a26.916,26.916,0,0,0,26.891,26.891H405.9a58.446,58.446,0,0,1,4.966,22.893l-28.117,6.965a37.312,37.312,0,1,0-31.341,63.907A22.163,22.163,0,0,1,330,240.285Zm46.882-31.47h0l-8.448-12.446a14.739,14.739,0,1,0-6.449,4.385l8.448,12.446a29.637,29.637,0,1,1,6.449-4.385Zm3.676,48.881a2.725,2.725,0,0,1,2.708-2.708h0a2.708,2.708,0,1,1-2.708,2.708Zm-26.569-68.808,3.289,4.837h-.064a7.029,7.029,0,1,1,7.029-7.029,7.769,7.769,0,0,1-.516,2.708h0l-3.289-4.837a3.854,3.854,0,0,0-5.352-1.032A3.792,3.792,0,0,0,353.985,188.888Zm4.45,73.322a2.725,2.725,0,0,1-2.709-2.708h0a2.708,2.708,0,1,1,2.709,2.708ZM395.9,207.847c-2.064,22.248-.645,74.419-.129,89.444h-8.641V292.2a3.869,3.869,0,0,0-7.738,0v5.095H362.3V269.239a10.418,10.418,0,1,0-7.738,0v27.988h-11.35V251.505a4.978,4.978,0,0,0-.129-.967,13.96,13.96,0,0,0-2.193-4.643,30.12,30.12,0,0,0,18.443-21.99,36.9,36.9,0,0,0,15.413-4.385l4.579,6.771v21.668a10.436,10.436,0,1,0,13.542,5.868,10.581,10.581,0,0,0-5.8-5.868V225.13a4.348,4.348,0,0,0-.645-2.193L381.2,215.2a37.287,37.287,0,0,0,7.223-48.946l22.184-5.546a60.378,60.378,0,0,1-6.32,20.185c-.064.129-.129.193-.129.322h0C403.382,183.149,396.676,199.915,395.9,207.847Z"
                    transform="translate(-267.702 -86.994)" />
                <path id="Path_2" data-name="Path 2" class="cls-2"
                    d="M377.046,207.907l-.065.064h0a26.185,26.185,0,0,0-9.028,11.866,3.88,3.88,0,1,0,7.223,2.837v-.064a18.658,18.658,0,0,1,6.384-8.383,3.883,3.883,0,1,0-4.514-6.32Z"
                    transform="translate(-303.209 -129.68)" />
                <path id="Path_3" data-name="Path 3" class="cls-2"
                    d="M384.558,273.211h0a26.661,26.661,0,0,0,13.413,3.611H399a3.871,3.871,0,1,0-.258-7.738h-.774a18.678,18.678,0,0,1-9.48-2.579,3.87,3.87,0,0,0-5.288,1.354A3.961,3.961,0,0,0,384.558,273.211Z"
                    transform="translate(-308.529 -150.552)" />
                <path id="Path_4" data-name="Path 4" class="cls-2"
                    d="M437.061,219.008a34.166,34.166,0,0,0-2.128-3.676,24.885,24.885,0,0,0-3.16-3.74,3.876,3.876,0,0,0-5.417,5.546,17.049,17.049,0,0,1,2.193,2.644,17.76,17.76,0,0,1,1.548,2.644,18.815,18.815,0,0,1,1.87,8.19c0,.774-.065,1.483-.129,2.257a3.9,3.9,0,0,0,3.353,4.321h.451a3.838,3.838,0,0,0,3.8-3.418,25.977,25.977,0,0,0,.193-3.16A25.681,25.681,0,0,0,437.061,219.008Z"
                    transform="translate(-323.629 -130.85)" />
                <path id="Path_5" data-name="Path 5" class="cls-2"
                    d="M444.769,377.2a3.881,3.881,0,0,0-3.869,3.869v.129a3.869,3.869,0,0,0,7.739,0v-.129A3.881,3.881,0,0,0,444.769,377.2Z"
                    transform="translate(-329.209 -190.054)" />
            </g>
            <path id="Path_6" data-name="Path 6" class="cls-2"
                d="M147.867,168.187c0-3.16-.064-12.382-.129-13.542A71.568,71.568,0,0,0,75.447,87a18.123,18.123,0,0,0-1.87.064,65.391,65.391,0,0,0-54.427,32.76,66.626,66.626,0,0,0-1.612,64.552c2,4.966,7.094,18.508,7.61,24.183,2.322,25.086,0,91.766,0,92.411a3.883,3.883,0,0,0,3.74,4H89.441A3.881,3.881,0,0,0,93.31,301.1v-49.01a5.829,5.829,0,0,1,5.546-4h0c16.057.064,19.217.129,19.669.129A18.942,18.942,0,0,0,138,229.837V210.878h16.122a6.908,6.908,0,0,0,6.9-6.9,6.356,6.356,0,0,0-.451-2.451ZM134.2,203.139a3.881,3.881,0,0,0-3.869,3.869v22.248a11.16,11.16,0,0,1-11.156,11.156h-.322c-.838,0-7.545-.064-19.862-.129h-.129a22.422,22.422,0,0,1-22.248-20.443,3.878,3.878,0,0,0-7.738.516v.129a30.1,30.1,0,0,0,18.959,25.473,13.96,13.96,0,0,0-2.193,4.643,4.978,4.978,0,0,0-.129.967v45.657H33.015c.451-14.961,1.935-67.131-.129-89.444-.709-7.867-7.481-24.7-8.19-26.569a1.089,1.089,0,0,1-.129-.322,58.939,58.939,0,0,1,1.354-57.265A57.707,57.707,0,0,1,73.9,94.736c.58,0,1.1-.064,1.677-.064h.709a63.738,63.738,0,0,1,63.778,60.36c.064.774.064,7.738.129,13.865a3.368,3.368,0,0,0,.258,1.354l12.575,32.889Z"
                transform="translate(-7.979 -79.051)" />
        </g>
    </g>
</svg>