<svg xmlns="http://www.w3.org/2000/svg" xmlns:xlink="http://www.w3.org/1999/xlink" width="300"
    height="300" viewBox="0 0 300 300">
    <defs>
        <style>
            .cls-1 {
            clip-path: url(#clip-hiperspektral_goruntuleme);
            }

            .cls-2 {
            fill: #fff;
            }
        </style>
        <clipPath id="clip-hiperspektral_goruntuleme">
            <rect width="300" height="300" />
        </clipPath>
    </defs>
    <g id="hiperspektral_goruntuleme" data-name="hiperspektral goruntuleme" class="cls-1">
        <path id="Path_9" data-name="Path 9" class="cls-2"
            d="M269.526,0H34.778A21.345,21.345,0,0,0,20.454,6.521L.239,30.43H0v239.1a8.694,8.694,0,0,0,8.694,8.694H248.616L271.7,257.875a21.91,21.91,0,0,0,6.521-14.433V8.694A8.694,8.694,0,0,0,269.526,0ZM34.778,8.694H263l-6.521,6.521H24.562l2.521-2.956a13.042,13.042,0,0,1,7.695-3.565ZM17.171,23.91H247.942l-6.673,6.825a8.694,8.694,0,0,0-2.174-.3H11.629ZM83.314,229.9c-.826-7.847-8-18.063-14.172-20.28-10.259-3.63-15.041,3.826-17.606,7.847-.782,1.217-2.174,3.282-2.717,3.478-6.629,0-11.107,6-13.476,10.281a21.453,21.453,0,0,1-8.042-6.521c-4.912-9-16.172-14.737-16.65-14.976a4.347,4.347,0,0,0-1.956-.435V190.668a4.348,4.348,0,0,0,.935-.717,27.974,27.974,0,0,1,12.694-6.39l.609-.152c7.26-2.521,7.8-9.281,8.129-13.346a9.781,9.781,0,0,1,1.022-4.76c1.63-1.543,8.52-.8,12.324,1.282A14.194,14.194,0,0,0,58.1,167.5c9.346-4.608,12.389-19.845,13.042-23.257.848-1.978,1.826-2.282,2.174-2.391,2.434-.761,6.521,1.391,8.238,2.543a4.347,4.347,0,0,0,2.8.8c6.76-.435,11.02-2.8,12.65-7.021,2.543-6.521-3.347-14.672-6.521-18.345a55.406,55.406,0,0,1,6.13-14.737,12.716,12.716,0,0,0,5.543-9.216A14.215,14.215,0,0,0,97.7,85.27,4.347,4.347,0,0,0,96.29,84.4a22.345,22.345,0,0,1-7.825-7.89,16.8,16.8,0,0,1-.978-2.847c-.956-3.326-2.282-7.912-6.738-9.825s-4.543-2.652-5.086-7.325a16.178,16.178,0,0,0-.239-1.934A9.564,9.564,0,0,0,72.489,49.1l-.761-.826a7.239,7.239,0,0,1,0-.935,9.107,9.107,0,0,0-.891-4.978,9.477,9.477,0,0,0-2.847-3.239H124.5c2.8,2.587,10.39,10.868,6.912,22.5a43.319,43.319,0,0,1-1.934,4.8c-1.8,4.086-3.7,8.325-2.739,12.389a78.817,78.817,0,0,1,.869,9.607c.2,3.434.37,6.695.739,9.02,1.043,6.76,7.455,16.628,8.694,18.541,2.347,3.521,4.608,11.042,1.978,16.019a20.671,20.671,0,0,0,4.347,25,202.82,202.82,0,0,1,20.323,21.084c5.543,6.347,10.325,12.607,7.868,19.215-.565,1.521-1.261,3.021-1.913,4.456-2.739,5.934-6.13,13.3,1.761,21.736,4.2,4.347,2.456,10.5,0,16.367l-.217.543c-1.956.37-3.934.674-5.847.956a84.159,84.159,0,0,0-11.759,2.3,18.519,18.519,0,0,1-8.955-.13c-1.565-.261-3.2-.543-5.043-.717a75.164,75.164,0,0,0-18.236.63l-2.174.3c-5.5.782-12.346,1.761-17.106,4.825s-9.042,4.2-12.694,3.369A11.651,11.651,0,0,1,82.6,247.29a4.347,4.347,0,0,0-1.3-1.369c-3.891-2.63-4.347-4.108-4.347-4.108A3.13,3.13,0,0,1,78.1,240.9l.609-.3a10.52,10.52,0,0,0,4.63-10.694ZM26.192,39.125a41.059,41.059,0,0,0,3,33.386A60.556,60.556,0,0,0,41.559,87.726a23.91,23.91,0,0,0,4.347,2.891c2.369,1.348,4.173,2.434,4.086,3.369,0,.5-.674,2.347-6.216,5.195s-7.455,8.368-9.129,13.194-2.782,7.695-5.8,8.586a36.212,36.212,0,0,0-10.977,5.89c-4.347,3.086-6.3,4.173-9.173,3.26V39.125Zm-17.5,99.833a13.954,13.954,0,0,0,1.848.13c5.043.022,9.02-2.8,12.346-5.173a28.865,28.865,0,0,1,8.412-4.652c7.455-2.174,9.716-8.694,11.564-14.085,1.3-3.782,2.434-7.042,4.912-8.3s10.085-5.195,10.868-11.911-5-10-8.455-11.933a19.018,19.018,0,0,1-2.8-1.761A51.8,51.8,0,0,1,36.777,68.229c-6.695-11.89-4.173-25.648-.739-29.1H50.927c2.369,2.608,7.064,7,12.194,7.282v.565a9.933,9.933,0,0,0,.739,4.76,11.89,11.89,0,0,0,2.3,3.2c.261.283.587.674.674.652a15.178,15.178,0,0,0,.217,1.8c.63,5.391,1.2,10.5,10.259,14.389.674.283,1.435,2.869,1.826,4.347a21.54,21.54,0,0,0,1.8,4.782A31.408,31.408,0,0,0,92.182,92.139a5.151,5.151,0,0,1,1.282,3.086c0,1.3-1.478,2.5-2.63,3.3a4.347,4.347,0,0,0-1.217,1.282c-.283.456-6.956,11.194-8.129,20.888a4.347,4.347,0,0,0,1.109,3.543c3.717,3.847,6.76,9.216,6.151,10.868,0,.261-1,1-3.717,1.348-2.739-1.63-8.694-4.586-14.389-2.869a12.259,12.259,0,0,0-7.912,8.021,4.347,4.347,0,0,0-.217.869c-.7,4.63-3.63,14.954-8.3,17.258-.978.478-2.63.935-5.651-.717-4.956-2.739-16.65-5.543-22.5,0-3.13,2.956-3.456,7.086-3.717,10.39-.326,4.13-.674,5.173-2.174,5.738a40.624,40.624,0,0,0-11.477,4.608Zm169,78.51c-3.7-3.934-3-6.043-.2-12.085.7-1.521,1.5-3.239,2.174-5.064,4.347-12-4.608-22.366-9.455-27.952a209.536,209.536,0,0,0-21.236-21.975,11.955,11.955,0,0,1-2.174-14.3c4.63-8.694,1.087-19.693-2.413-24.931-3.282-4.651-6.934-11.455-7.455-15.02-.3-1.913-.478-5.108-.652-8.194A77.012,77.012,0,0,0,135.2,76.837c-.283-1.217,1.217-4.63,2.174-6.869a49.84,49.84,0,0,0,2.3-5.847,28.778,28.778,0,0,0-3.869-25h85.531a14.65,14.65,0,0,0,.37,11.39c1.022,2.847.978,3.26.369,4.108a42.124,42.124,0,0,1-3.8,4.347c-4.021,4.13-9,9.281-7.825,17.584.326,2.978.522,15.106-4.76,15.759a23.757,23.757,0,0,0-17.128,9.086c-14.15,18.8-.326,36.538,10.868,50.8a110.847,110.847,0,0,1,9.694,13.715,35.429,35.429,0,0,1,4.847,18.758,47.451,47.451,0,0,1-2.174,9.673,49.776,49.776,0,0,0-2.5,12.911,38.625,38.625,0,0,0,5.63,21.258,50.512,50.512,0,0,0-9.346,4.978l-1.891,1.2a14.215,14.215,0,0,1-6.912,1.043,39.123,39.123,0,0,0-6.195.391c-3.173.522-6.282,1.261-9.325,2,1.761-5.782,2.739-13.933-3.565-20.627Zm48.754,10.607c-6.043-4.021-8.694-13.368-8.477-20.714a42.386,42.386,0,0,1,2.174-10.694,54.819,54.819,0,0,0,2.434-11.477,43.342,43.342,0,0,0-5.89-23.54,116.763,116.763,0,0,0-10.455-14.889c-12.607-16.128-20.171-27.67-10.716-40.255a15.346,15.346,0,0,1,11.237-5.695c11.824-1.435,13.324-16.606,12.346-25.475-.565-4.021,1.587-6.521,5.434-10.433a49.472,49.472,0,0,0,4.586-5.195c3.456-4.717,1.848-9.194.8-12.172s-1.782-5.021,2.174-8.455h7V241.747a24.909,24.909,0,0,1-6.173-8.694,4.348,4.348,0,0,0-1.065-1.543,16.737,16.737,0,0,0-5.412-3.413ZM8.694,269.526v-50.8a31.886,31.886,0,0,1,11.064,10.39c.478.782,4.891,7.781,16.28,11.868a4.347,4.347,0,0,0,5.543-2.565c1.391-3.673,4.673-8.694,7.26-8.694,5.26,0,8.021-4.347,10.042-7.5,2.934-4.586,3.978-5.543,7.368-4.347,2.282.8,7.868,7.629,8.455,13.042.174,1.543-.217,2.065-.478,2.174a10.3,10.3,0,0,0-5.956,7.781c-.565,5.76,4.869,9.977,7.5,11.8a20.106,20.106,0,0,0,11.477,7.651,19.563,19.563,0,0,0,4.5.522,27.974,27.974,0,0,0,14.976-5c3.173-2.043,9.238-2.891,13.65-3.521l2.174-.326a66.318,66.318,0,0,1,16.106-.565c1.5.13,2.956.391,4.347.63a26.344,26.344,0,0,0,12.868,0,76.356,76.356,0,0,1,10.564-2.065c2.174-.326,4.347-.652,6.782-1.109,2.869-.565,5.695-1.261,8.434-1.913,3.521-.869,6.847-1.674,10.259-2.174a31.884,31.884,0,0,1,4.847-.261,21.062,21.062,0,0,0,11.411-2.326l1.978-1.239c5.89-3.739,9.629-5.63,12.933-4.521l.283.174a4.349,4.349,0,0,0,.826.3,7.543,7.543,0,0,1,1.065.674c1.435,3.13,6.043,11.716,13.8,14.194v17.715Zm239.1-2.174V39.125a8.694,8.694,0,0,0-.348-2.3l6.869-7V261.614Zm18.15-16L263,253.963V21l6.521-6.521V243.443A13.541,13.541,0,0,1,265.939,251.354Z"
            transform="translate(10 11)" />
    </g>
</svg>