<svg xmlns="http://www.w3.org/2000/svg" viewBox="0 0 135.69 15.88">
    <defs>
        <style>
            .cls-1 {
            fill: #fff;
            }
        </style>
    </defs>
    <g id="katman_2" data-name="katman 2">
        <g id="Layer_1" data-name="Layer 1">
            <path class="cls-1"
                d="M38,7.75c-.34-.22-7.71-4.7-15.26-6l1.78,3.47a46.85,46.85,0,0,1,8.77,3.37.46.46,0,0,1,.19.61.44.44,0,0,1-.19.19,52.14,52.14,0,0,1-6.88,2.84l-3-5.93H20L23.42,13h0l1.4,2.79A53.25,53.25,0,0,0,38,10.27l.28-.17a1.32,1.32,0,0,0,.43-1.82,1.47,1.47,0,0,0-.43-.43Z" />
            <path class="cls-1"
                d="M21.21,12,19.7,9H17.29L18.55,6.5,16.84,3.24l-4.55,9.07A46.37,46.37,0,0,1,5.75,9.56a.63.63,0,0,1-.26-.85.65.65,0,0,1,.26-.26,38.91,38.91,0,0,1,8.46-3.31L15.9,1.75c-7.55,1.11-14.7,5.8-15,6l-.25.17a1.31,1.31,0,0,0-.4,1.81,1.27,1.27,0,0,0,.4.4l.25.16a48.81,48.81,0,0,0,13,5.59l.71-1.41h0L15.83,12Z" />
            <polygon class="cls-1" points="21.17 1.64 17.74 1.63 19.38 4.93 22.81 4.94 21.17 1.64" />
            <path class="cls-1"
                d="M47.48,4.84a6,6,0,0,1,1.83.25,2.52,2.52,0,0,1,1.16.74,3.12,3.12,0,0,1,.59,1.07,5.55,5.55,0,0,1,.17,1.35v6.5H50.09l-.39-.9A3.93,3.93,0,0,1,47,14.93a3.42,3.42,0,0,1-2.27-.83,2.48,2.48,0,0,1-1-1.94,2.43,2.43,0,0,1,.22-1.06,2,2,0,0,1,.62-.79,3.56,3.56,0,0,1,.93-.53,5.09,5.09,0,0,1,1.23-.34,12.87,12.87,0,0,1,1.39-.17h1.53V8.51a5.61,5.61,0,0,0,0-.58,3,3,0,0,0-.16-.59,1.73,1.73,0,0,0-.38-.57,2.17,2.17,0,0,0-.7-.38,3.57,3.57,0,0,0-1.12-.16,10.33,10.33,0,0,0-2.59.44l-.31-1.18A9,9,0,0,1,47.48,4.84Zm2.13,5.6H48a8.27,8.27,0,0,0-1,.11,3.17,3.17,0,0,0-.91.26,1.62,1.62,0,0,0-.61.49,1.18,1.18,0,0,0-.25.76,1.36,1.36,0,0,0,.63,1.1,2.37,2.37,0,0,0,1.48.48,2.88,2.88,0,0,0,2.19-1Z" />
            <path class="cls-1" d="M53.21.75h1.91V2.64H53.21ZM53.36,5H55v9.75H53.36Z" />
            <path class="cls-1" d="M65.82,5.11l-3.33,9.7H60.23L56.7,5.11h2.43l2.25,7.15,2.19-7.15Z" />
            <path class="cls-1" d="M66.4,5.11h2.11v9.7H66.4Z" />
            <path class="cls-1"
                d="M75.7,11.91a.61.61,0,0,0-.33-.43,4.22,4.22,0,0,0-.8-.33l-1.07-.31a8.75,8.75,0,0,1-1.16-.38,6.6,6.6,0,0,1-1.06-.54,2.45,2.45,0,0,1-.78-.82A2.13,2.13,0,0,1,70.2,8a2.27,2.27,0,0,1,.13-.77,2.48,2.48,0,0,1,.45-.81,2.87,2.87,0,0,1,.82-.73,4.41,4.41,0,0,1,1.32-.51,7.38,7.38,0,0,1,1.88-.21A8.29,8.29,0,0,1,75.91,5a5.73,5.73,0,0,1,.7.13l.63.21.35.11-.58,2-.33-.1A6.93,6.93,0,0,0,74.52,7a4.22,4.22,0,0,0-.94.08,2.08,2.08,0,0,0-.61.2,1,1,0,0,0-.34.26.71.71,0,0,0-.16.26.61.61,0,0,0,0,.19.5.5,0,0,0,.3.41,3.69,3.69,0,0,0,.79.34l1.08.32q.58.18,1.17.42a6.51,6.51,0,0,1,1.08.56,2.51,2.51,0,0,1,.79.8,2.12,2.12,0,0,1,.31,1.1,3.24,3.24,0,0,1-.11.82,2.69,2.69,0,0,1-.41.81,3.22,3.22,0,0,1-.78.74,4.82,4.82,0,0,1-1.3.51,7.79,7.79,0,0,1-1.86.2,7.6,7.6,0,0,1-3.28-.77l-.32-.15.64-2,.32.15a7.06,7.06,0,0,0,2.71.66,4.05,4.05,0,0,0,1.61-.25A.83.83,0,0,0,75.7,11.91Z" />
            <path class="cls-1" d="M79.23,5.11h2.11v9.7H79.23Z" />
            <path class="cls-1"
                d="M87.59,4.92A4.63,4.63,0,0,1,91,6.21a4.86,4.86,0,0,1,1.3,3.54A5.3,5.3,0,0,1,91,13.57,4.64,4.64,0,0,1,87.43,15,4.49,4.49,0,0,1,84,13.66,5,5,0,0,1,82.76,10a5.26,5.26,0,0,1,1.3-3.75A4.61,4.61,0,0,1,87.59,4.92ZM87.45,7.1a2.79,2.79,0,0,0-1.24.29,2.47,2.47,0,0,0-1,.92,2.72,2.72,0,0,0-.39,1.5A3.08,3.08,0,0,0,85.59,12a2.71,2.71,0,0,0,3.87.11,2.74,2.74,0,0,0,.76-2A3.58,3.58,0,0,0,90,8.77a2.69,2.69,0,0,0-.65-.94,2.91,2.91,0,0,0-.89-.54A3,3,0,0,0,87.45,7.1Z" />
            <path class="cls-1"
                d="M93.7,5.11h1.5l.3.67a7.28,7.28,0,0,1,3.27-.87,3.65,3.65,0,0,1,1.42.26,2.6,2.6,0,0,1,1,.64,3.24,3.24,0,0,1,.54,1A6,6,0,0,1,102,7.92q.06.6.06,1.2v5.72H99.94V9.12a3.84,3.84,0,0,0,0-.48,2.15,2.15,0,0,0-.12-.5A1.2,1.2,0,0,0,99,7.32a2.14,2.14,0,0,0-.86-.15,5.5,5.5,0,0,0-2.22.54v7.1H93.7Z" />
            <path class="cls-1"
                d="M103.7,5.14V2.36h1.61V5.14h3V6.4h-3v5.35c0,1.35.53,2,1.59,2a12.88,12.88,0,0,0,1.5-.21l.22,1.1a9.35,9.35,0,0,1-2.22.36,3.2,3.2,0,0,1-1.3-.25,1.79,1.79,0,0,1-.83-.73,3.35,3.35,0,0,1-.41-1,5.46,5.46,0,0,1-.16-1.27Z" />
            <path class="cls-1"
                d="M113.88,5a4.57,4.57,0,0,1,1.27.17,3.36,3.36,0,0,1,.94.44,2.63,2.63,0,0,1,.64.69,5.87,5.87,0,0,1,.42.83,6.23,6.23,0,0,1,.22.95c0,.38.08.7.1,1s0,.6,0,1v.72H110.8a2.42,2.42,0,0,0,.24,1.06,3.23,3.23,0,0,0,.68,1,3,3,0,0,0,1.15.71,4.4,4.4,0,0,0,1.57.28,7.57,7.57,0,0,0,2.21-.36l.29,1.1a9.68,9.68,0,0,1-3.11.54,5.8,5.8,0,0,1-1.9-.28,4,4,0,0,1-1.33-.74,3.71,3.71,0,0,1-.83-1.1,4.48,4.48,0,0,1-.45-1.27,6,6,0,0,1-.12-1.34,7.09,7.09,0,0,1,.26-2,5.07,5.07,0,0,1,.74-1.6,4.2,4.2,0,0,1,1.06-1,3.9,3.9,0,0,1,1.26-.62A4.8,4.8,0,0,1,113.88,5Zm-.34,1.39a2.39,2.39,0,0,0-1.49.48A2.71,2.71,0,0,0,111.14,8a3.94,3.94,0,0,0-.28,1.52h5.06C115.92,7.4,115.13,6.34,113.54,6.34Z" />
            <path class="cls-1"
                d="M118.63,10.21a6.83,6.83,0,0,1,.28-2.06,4.24,4.24,0,0,1,.73-1.51,4.09,4.09,0,0,1,1.07-1A4.49,4.49,0,0,1,122,5.09a5.54,5.54,0,0,1,1.35-.16,6.75,6.75,0,0,1,2.72.58l-.35,1.24a6.78,6.78,0,0,0-2.13-.38,4.78,4.78,0,0,0-1,.1,2.89,2.89,0,0,0-.9.34,2.48,2.48,0,0,0-.77.63,3,3,0,0,0-.51,1,4.68,4.68,0,0,0-.2,1.44,5.22,5.22,0,0,0,.21,1.57,3.27,3.27,0,0,0,.54,1.11,2.79,2.79,0,0,0,.8.69,3.16,3.16,0,0,0,.94.36,4.79,4.79,0,0,0,1,.11,5.29,5.29,0,0,0,1.84-.33l.4,1.11a7.7,7.7,0,0,1-2.8.54,5.67,5.67,0,0,1-1.24-.13,4.32,4.32,0,0,1-1.21-.46,3.55,3.55,0,0,1-1.06-.86,3.87,3.87,0,0,1-.73-1.39A6.11,6.11,0,0,1,118.63,10.21Z" />
            <path class="cls-1"
                d="M131.84,6.39a5.76,5.76,0,0,0-2.59.76v7.69h-1.61V0h1.61V5.87A6.85,6.85,0,0,1,132.47,5a3.83,3.83,0,0,1,1.16.17,3,3,0,0,1,.85.41,2.4,2.4,0,0,1,.58.65,5.17,5.17,0,0,1,.36.75,5.87,5.87,0,0,1,.19.83c0,.32.07.58.08.78s0,.44,0,.72v5.57H134V9C134.05,7.25,133.31,6.39,131.84,6.39Z" />
            <rect class="cls-1" x="66.41" y="0.72" width="1.9" height="1.86" />
            <rect class="cls-1" x="79.24" y="0.82" width="1.9" height="1.86" />
        </g>
    </g>
</svg>