<svg xmlns="http://www.w3.org/2000/svg" xmlns:xlink="http://www.w3.org/1999/xlink" width="300"
    height="300" viewBox="0 0 300 300">
    <defs>
        <style>
            .cls-1 {
            clip-path: url(#clip-makine_ogrenmesi);
            }

            .cls-2 {
            fill: #fff;
            }
        </style>
        <clipPath id="clip-makine_ogrenmesi">
            <rect width="300" height="300" />
        </clipPath>
    </defs>
    <g id="makine_ogrenmesi" data-name="makine ogrenmesi" class="cls-1">
        <g id="Group_4" data-name="Group 4" transform="translate(11.432 15.112)">
            <g id="Group_2" data-name="Group 2">
                <path id="Path_7" data-name="Path 7" class="cls-2"
                    d="M267.744,127.911V63.823a14.816,14.816,0,1,0-19.053-14.29,15.366,15.366,0,0,0,10.393,14.29v62.356l-10.826,10.393a25.054,25.054,0,0,0-8.661-13.424,29.413,29.413,0,0,0-16.022-7.794L234.4,104.527a3.931,3.931,0,0,0,1.3-3.031V35.676a14.56,14.56,0,0,0,10.393-14.29,14.723,14.723,0,0,0-29.446,0,15.366,15.366,0,0,0,10.393,14.29V99.331l-12.125,12.125C207.553,94.568,187.2,86.773,169.88,94.568V34.81a14.56,14.56,0,0,0,10.393-14.29,14.723,14.723,0,1,0-29.446,0A15.366,15.366,0,0,0,161.22,34.81V89.371a30.3,30.3,0,0,0-33.776-3.9V34.81a14.56,14.56,0,0,0,10.393-14.29,14.723,14.723,0,1,0-29.446,0,15.366,15.366,0,0,0,10.393,14.29v48.5c-20.352-15.589-51.1-5.2-57.592,20.352l-9.96-10.393V30.913a15.366,15.366,0,0,0,10.393-14.29A14.6,14.6,0,0,0,46.9,1.9,14.973,14.973,0,0,0,31.745,16.623a15.366,15.366,0,0,0,10.393,14.29V95a3.931,3.931,0,0,0,1.3,3.031l10.826,10.826a29.847,29.847,0,0,0-25.115,25.549l-9.094-9.094V62.957a14.849,14.849,0,0,0-4.33-29.013A14.973,14.973,0,0,0,1,49.1,15.366,15.366,0,0,0,11.393,63.39v64.088a3.931,3.931,0,0,0,1.3,3.031L25.682,143.5C12.259,149.129,6.629,162.553,7.5,173.811c1.3,13.424,11.259,28.147,30.312,28.147H73.315v14.723a4.217,4.217,0,0,0,3.464,4.33l9.527,1.732a52.978,52.978,0,0,0,4.33,10.393l-5.2,7.361c-1.3,1.732-.866,3.9.433,5.629L98.864,259.55a4.539,4.539,0,0,0,5.629.433l7.794-5.629a74.7,74.7,0,0,0,10.393,4.33l1.732,9.527a4.217,4.217,0,0,0,4.33,3.464h18.62a4.217,4.217,0,0,0,4.33-3.464l1.732-9.527a52.976,52.976,0,0,0,10.393-4.33l7.794,5.629c1.732,1.3,3.9.866,5.629-.433l13.424-13.424a4.539,4.539,0,0,0,.433-5.629l-5.629-7.794a74.7,74.7,0,0,0,4.33-10.393l9.527-1.732a4.217,4.217,0,0,0,3.464-4.33V201.525H238.3c18.187,0,28.147-13.424,30.312-26.415,1.732-11.259-3.031-24.682-15.589-31.178l13.857-13.857C267.311,130.076,267.744,128.777,267.744,127.911ZM225.307,21.819a6.062,6.062,0,0,1,12.125,0,6.062,6.062,0,0,1-12.125,0Zm-184.9-5.2a6.062,6.062,0,1,1,12.125,0,5.92,5.92,0,0,1-6.062,6.062A6.193,6.193,0,0,1,40.405,16.623ZM9.661,49.1a5.92,5.92,0,0,1,6.062-6.062,6.062,6.062,0,1,1,0,12.125A6.193,6.193,0,0,1,9.661,49.1ZM159.92,20.52a6.062,6.062,0,0,1,12.125,0,6.062,6.062,0,0,1-12.125,0Zm-42.437,0a6.062,6.062,0,0,1,12.125,0,5.92,5.92,0,0,1-6.062,6.062C120.082,27.015,117.484,23.984,117.484,20.52ZM193.7,212.784l-8.661,1.3a4.7,4.7,0,0,0-3.464,3.464,40.829,40.829,0,0,1-5.2,12.991,4.691,4.691,0,0,0,0,4.763l4.763,6.928-8.227,8.227-6.928-4.763a4.691,4.691,0,0,0-4.763,0,34.173,34.173,0,0,1-12.991,5.2,4.7,4.7,0,0,0-3.464,3.464l-1.3,8.661H132.207l-1.3-8.661a4.7,4.7,0,0,0-3.464-3.464,58.137,58.137,0,0,1-12.991-5.2,4.691,4.691,0,0,0-4.763,0l-6.928,4.763-8.227-8.227L99.3,235.3a4.691,4.691,0,0,0,0-4.763,34.172,34.172,0,0,1-5.2-12.991,4.7,4.7,0,0,0-3.464-3.464l-8.661-1.3V201.525l8.661-1.732a4.7,4.7,0,0,0,3.464-3.464,47.991,47.991,0,0,1,5.2-12.991,4.691,4.691,0,0,0,0-4.763l-4.763-6.928,8.227-8.227,6.928,4.763a4.674,4.674,0,0,0,4.763,0,34.172,34.172,0,0,1,12.991-5.2,4.7,4.7,0,0,0,3.464-3.464l1.3-8.661H143.9l1.3,8.661a4.7,4.7,0,0,0,3.464,3.464,58.138,58.138,0,0,1,12.991,5.2,4.691,4.691,0,0,0,4.763,0l6.928-4.763,8.228,8.227-4.763,6.928a4.691,4.691,0,0,0,0,4.763,34.172,34.172,0,0,1,5.2,12.991,4.7,4.7,0,0,0,3.464,3.464l8.661,1.732v11.259Zm65.82-38.106c-1.3,9.527-8.661,19.053-21.651,19.053h-40.7l-7.794-1.3a52.977,52.977,0,0,0-4.33-10.393l5.629-7.794c1.3-1.732.866-3.9-.433-5.629l-13.424-12.991a4.539,4.539,0,0,0-5.629-.433l-7.794,5.2a57.692,57.692,0,0,0-10.393-4.33l-1.732-9.527a4.217,4.217,0,0,0-4.33-3.464H128.31a4.217,4.217,0,0,0-4.33,3.464l-1.732,9.527a52.977,52.977,0,0,0-10.393,4.33l-6.928-5.629c-1.732-1.3-3.9-.866-5.629.433L86.306,168.182a4.539,4.539,0,0,0-.433,5.629l5.629,7.794A74.7,74.7,0,0,0,87.172,192l-8.661,1.732c-1.732-.433,3.464,0-39.838,0-13.857,0-20.785-9.96-21.651-20.352-2.6-31.611,43.3-30.745,43.3-1.732a4.33,4.33,0,0,0,8.661,0c0-18.62-16.888-31.611-30.745-30.312-1.732-13.857,10.826-26.848,26.415-23.816a4.647,4.647,0,0,0,5.2-4.763c0-25.982,32.044-37.24,48.932-18.62a.424.424,0,0,0,.433.433c15.156,17.754,2.6,45.9-21.218,45.9a4.33,4.33,0,1,0,0,8.661c27.714,0,45.468-29.879,32.044-54.128a21.22,21.22,0,0,1,16.888-3.9c16.455,3.031,13.857,17.321,21.218,15.156,2.165-.433,11.259-9.96,25.982-4.33a24.336,24.336,0,0,1,14.723,15.156c-11.692,4.33-19.053,15.589-19.053,28.147a4.33,4.33,0,0,0,8.661,0,21.241,21.241,0,0,1,36.374-15.156c4.763,4.33,7.361,10.826,6.928,16.022a4.367,4.367,0,0,0,3.031,4.763C256.485,153.892,260.816,165.151,259.516,174.677Zm-2.6-125.144a6.062,6.062,0,1,1,6.062,6.062A6.193,6.193,0,0,1,256.918,49.533Z"
                    transform="translate(-1 -1.9)" />
            </g>
            <g id="Group_3" data-name="Group 3" transform="translate(103.926 171.911)">
                <path id="Path_8" data-name="Path 8" class="cls-2"
                    d="M58.343,41.6a33.343,33.343,0,0,0,0,66.686,33.343,33.343,0,0,0,0-66.686Zm0,58.025A24.682,24.682,0,1,1,83.025,74.943,24.671,24.671,0,0,1,58.343,99.625Z"
                    transform="translate(-25 -41.6)" />
            </g>
        </g>
    </g>
</svg>