<svg xmlns="http://www.w3.org/2000/svg" xmlns:xlink="http://www.w3.org/1999/xlink" width="300"
    height="300" viewBox="0 0 300 300">
    <defs>
        <style>
            .cls-1 {
            clip-path: url(#clip-termal_goruntuleme);
            }

            .cls-2 {
            fill: #fff;
            }
        </style>
        <clipPath id="clip-termal_goruntuleme">
            <rect width="300" height="300" />
        </clipPath>
    </defs>
    <g id="termal_goruntuleme" data-name="termal goruntuleme" class="cls-1">
        <g id="Group_5" data-name="Group 5" transform="translate(-124.003 690.025)">
            <path id="Path_10" data-name="Path 10" class="cls-2"
                d="M270.087,8H13.283A13.283,13.283,0,0,0,0,21.283V207.245a13.283,13.283,0,0,0,13.283,13.283H137.258v26.566H68.629a4.428,4.428,0,1,0,0,8.855H214.742a4.428,4.428,0,1,0,0-8.855H146.113V220.528H270.087a13.283,13.283,0,0,0,13.283-13.283V21.283A13.283,13.283,0,0,0,270.087,8Zm4.428,199.245a4.428,4.428,0,0,1-4.428,4.428H13.283a4.428,4.428,0,0,1-4.428-4.428V21.283a4.428,4.428,0,0,1,4.428-4.428h256.8a4.428,4.428,0,0,1,4.428,4.428Z"
                transform="translate(132.317 -672)" />
            <path id="Path_11" data-name="Path 11" class="cls-2"
                d="M84.087,58.373a25.437,25.437,0,1,0-37.989,0C35.56,59.79,25,68.358,25,80.18v46.49a4.428,4.428,0,0,0,4.428,4.428H42.711v57.56a4.428,4.428,0,0,0,4.428,4.428H82.56a4.428,4.428,0,0,0,4.428-4.428V131.1H100.27a4.428,4.428,0,0,0,4.428-4.428V80.18C104.7,68.535,94.47,60.056,84.087,58.373Zm-18.95-33.54a16.6,16.6,0,1,1-16.6,16.6,16.6,16.6,0,0,1,16.6-16.6Zm30.706,97.409H86.987V89.035a4.428,4.428,0,1,0-8.855,0V184.23H69.277V124.456a4.428,4.428,0,1,0-8.855,0V184.23H51.566V89.035a4.428,4.428,0,1,0-8.855,0v33.207H33.855V80.18c0-7.483,8.324-13.283,15.5-13.283H80.346c7.173,0,15.5,5.8,15.5,13.283Z"
                transform="translate(162.663 -662.268)" />
            <path id="Path_12" data-name="Path 12" class="cls-2"
                d="M106.577,16C90.925,16,80.011,26.914,80.011,42.566v88.553a19.526,19.526,0,0,0,8.258,16.847c3.033,2.546,5.025,4.251,5.025,9.852V177.61a13.283,13.283,0,1,0,26.566,0V157.818c0-5.579,1.992-7.283,5.025-9.829a19.548,19.548,0,0,0,8.258-16.869V42.566C133.143,26.914,122.229,16,106.577,16ZM111,177.61a4.428,4.428,0,1,1-8.855,0V155.471h9.077v2.347Zm13.283-46.49c0,5.778-2.037,7.5-5.114,10.1a25.26,25.26,0,0,0-5.18,5.4H111V42.566a4.428,4.428,0,1,0-8.855,0v104.05H99.139a25.991,25.991,0,0,0-5.158-5.424c-3.077-2.59-5.114-4.295-5.114-10.073v-4.428a4.428,4.428,0,0,0,0-8.855v-15.5a4.428,4.428,0,0,0,0-8.855h0v-15.5a4.428,4.428,0,0,0,0-8.855v-15.5a4.428,4.428,0,0,0,0-8.855V42.566c0-10.759,6.951-17.711,17.711-17.711s17.711,6.951,17.711,17.711Z"
                transform="translate(229.413 -662.289)" />
        </g>
    </g>
</svg>